<svg width="490" height="184" viewBox="0 0 490 184" fill="none" xmlns="http://www.w3.org/2000/svg">
<path d="M183.08 25.12H164.2V74H155.16V25.12H136.2V17.2H183.08V25.12ZM178.959 61.76C178.959 59.0933 179.705 56.7733 181.199 54.8C182.745 52.7733 184.852 51.2267 187.519 50.16C190.185 49.04 193.279 48.48 196.799 48.48C198.665 48.48 200.559 48.6133 202.479 48.88C204.452 49.1467 206.185 49.5733 207.679 50.16V47.52C207.679 44.5867 206.799 42.2933 205.039 40.64C203.279 38.9867 200.745 38.16 197.439 38.16C195.092 38.16 192.879 38.5867 190.799 39.44C188.719 40.24 186.505 41.3867 184.159 42.88L181.199 36.96C183.972 35.0933 186.745 33.7067 189.519 32.8C192.345 31.8933 195.305 31.44 198.399 31.44C203.999 31.44 208.399 32.9333 211.599 35.92C214.852 38.8533 216.479 43.04 216.479 48.48V64.08C216.479 65.0933 216.639 65.8133 216.959 66.24C217.332 66.6667 217.945 66.9067 218.799 66.96V74C217.999 74.16 217.279 74.2667 216.639 74.32C215.999 74.3733 215.465 74.4 215.039 74.4C213.172 74.4 211.759 73.9467 210.799 73.04C209.839 72.1333 209.279 71.0667 209.119 69.84L208.879 67.44C207.065 69.7867 204.745 71.6 201.919 72.88C199.092 74.16 196.239 74.8 193.359 74.8C190.585 74.8 188.105 74.24 185.919 73.12C183.732 71.9467 182.025 70.3733 180.799 68.4C179.572 66.4267 178.959 64.2133 178.959 61.76ZM205.599 64.32C206.239 63.6267 206.745 62.9333 207.119 62.24C207.492 61.5467 207.679 60.9333 207.679 60.4V55.6C206.185 55.0133 204.612 54.5867 202.959 54.32C201.305 54 199.679 53.84 198.079 53.84C194.879 53.84 192.265 54.48 190.239 55.76C188.265 57.04 187.279 58.8 187.279 61.04C187.279 62.2667 187.599 63.44 188.239 64.56C188.932 65.68 189.892 66.5867 191.119 67.28C192.399 67.9733 193.972 68.32 195.839 68.32C197.759 68.32 199.599 67.9467 201.359 67.2C203.119 66.4533 204.532 65.4933 205.599 64.32ZM249.715 74.8C246.515 74.8 243.608 74.0533 240.995 72.56C238.435 71.0133 236.408 68.96 234.915 66.4V74H227.155V15.6H235.955V40.08C237.608 37.4133 239.662 35.3067 242.115 33.76C244.622 32.2133 247.555 31.44 250.915 31.44C253.688 31.44 256.222 32.0267 258.515 33.2C260.808 34.3733 262.755 35.9733 264.355 38C266.008 40.0267 267.262 42.3467 268.115 44.96C269.022 47.5733 269.475 50.3467 269.475 53.28C269.475 56.2133 268.968 58.9867 267.955 61.6C266.995 64.2133 265.608 66.5067 263.795 68.48C261.982 70.4533 259.875 72 257.475 73.12C255.128 74.24 252.542 74.8 249.715 74.8ZM247.395 67.28C249.315 67.28 251.075 66.9067 252.675 66.16C254.275 65.36 255.662 64.32 256.835 63.04C258.008 61.76 258.888 60.2667 259.475 58.56C260.115 56.8533 260.435 55.0933 260.435 53.28C260.435 50.7733 259.902 48.4267 258.835 46.24C257.822 44.0533 256.382 42.2933 254.515 40.96C252.648 39.6267 250.488 38.96 248.035 38.96C246.275 38.96 244.622 39.3867 243.075 40.24C241.528 41.04 240.142 42.1333 238.915 43.52C237.742 44.8533 236.755 46.3467 235.955 48V59.04C236.275 60.2667 236.835 61.3867 237.635 62.4C238.435 63.36 239.368 64.2133 240.435 64.96C241.502 65.6533 242.648 66.2133 243.875 66.64C245.102 67.0667 246.275 67.28 247.395 67.28ZM277.469 15.6H286.269V61.92C286.269 64.0533 286.589 65.4133 287.229 66C287.869 66.5867 288.669 66.88 289.629 66.88C290.696 66.88 291.683 66.7733 292.589 66.56C293.549 66.3467 294.376 66.08 295.069 65.76L296.349 72.72C295.069 73.2533 293.549 73.7067 291.789 74.08C290.029 74.4533 288.456 74.64 287.069 74.64C284.083 74.64 281.736 73.8133 280.029 72.16C278.323 70.4533 277.469 68.1067 277.469 65.12V15.6ZM298.412 61.76C298.412 59.0933 299.159 56.7733 300.652 54.8C302.199 52.7733 304.305 51.2267 306.972 50.16C309.639 49.04 312.732 48.48 316.252 48.48C318.119 48.48 320.012 48.6133 321.932 48.88C323.905 49.1467 325.639 49.5733 327.132 50.16V47.52C327.132 44.5867 326.252 42.2933 324.492 40.64C322.732 38.9867 320.199 38.16 316.892 38.16C314.545 38.16 312.332 38.5867 310.252 39.44C308.172 40.24 305.959 41.3867 303.612 42.88L300.652 36.96C303.425 35.0933 306.199 33.7067 308.972 32.8C311.799 31.8933 314.759 31.44 317.852 31.44C323.452 31.44 327.852 32.9333 331.052 35.92C334.305 38.8533 335.932 43.04 335.932 48.48V64.08C335.932 65.0933 336.092 65.8133 336.412 66.24C336.785 66.6667 337.399 66.9067 338.252 66.96V74C337.452 74.16 336.732 74.2667 336.092 74.32C335.452 74.3733 334.919 74.4 334.492 74.4C332.625 74.4 331.212 73.9467 330.252 73.04C329.292 72.1333 328.732 71.0667 328.572 69.84L328.332 67.44C326.519 69.7867 324.199 71.6 321.372 72.88C318.545 74.16 315.692 74.8 312.812 74.8C310.039 74.8 307.559 74.24 305.372 73.12C303.185 71.9467 301.479 70.3733 300.252 68.4C299.025 66.4267 298.412 64.2133 298.412 61.76ZM325.052 64.32C325.692 63.6267 326.199 62.9333 326.572 62.24C326.945 61.5467 327.132 60.9333 327.132 60.4V55.6C325.639 55.0133 324.065 54.5867 322.412 54.32C320.759 54 319.132 53.84 317.532 53.84C314.332 53.84 311.719 54.48 309.692 55.76C307.719 57.04 306.732 58.8 306.732 61.04C306.732 62.2667 307.052 63.44 307.692 64.56C308.385 65.68 309.345 66.5867 310.572 67.28C311.852 67.9733 313.425 68.32 315.292 68.32C317.212 68.32 319.052 67.9467 320.812 67.2C322.572 66.4533 323.985 65.4933 325.052 64.32ZM141.4 166V109.2H165.24C167.8 109.2 170.147 109.733 172.28 110.8C174.413 111.867 176.28 113.28 177.88 115.04C179.48 116.8 180.707 118.773 181.56 120.96C182.413 123.147 182.84 125.387 182.84 127.68C182.84 130.827 182.12 133.84 180.68 136.72C179.293 139.547 177.293 141.84 174.68 143.6C172.12 145.36 169.133 146.24 165.72 146.24H150.36V166H141.4ZM150.36 138.32H165.16C166.867 138.32 168.36 137.867 169.64 136.96C170.92 136 171.907 134.72 172.6 133.12C173.347 131.52 173.72 129.707 173.72 127.68C173.72 125.6 173.293 123.76 172.44 122.16C171.587 120.56 170.467 119.333 169.08 118.48C167.747 117.573 166.28 117.12 164.68 117.12H150.36V138.32ZM208.303 166.8C205.049 166.8 202.089 166.24 199.423 165.12C196.809 163.947 194.543 162.373 192.623 160.4C190.703 158.373 189.209 156.08 188.143 153.52C187.129 150.907 186.623 148.133 186.623 145.2C186.623 141.253 187.529 137.653 189.342 134.4C191.156 131.093 193.689 128.453 196.943 126.48C200.196 124.453 204.009 123.44 208.383 123.44C212.756 123.44 216.516 124.453 219.663 126.48C222.863 128.453 225.343 131.067 227.103 134.32C228.863 137.573 229.743 141.067 229.743 144.8C229.743 145.44 229.716 146.053 229.663 146.64C229.609 147.173 229.556 147.627 229.503 148H195.983C196.143 150.453 196.809 152.613 197.983 154.48C199.209 156.293 200.756 157.733 202.623 158.8C204.489 159.813 206.489 160.32 208.623 160.32C210.969 160.32 213.183 159.733 215.263 158.56C217.396 157.387 218.836 155.84 219.583 153.92L227.103 156.08C226.196 158.107 224.809 159.947 222.943 161.6C221.129 163.2 218.969 164.48 216.463 165.44C213.956 166.347 211.236 166.8 208.303 166.8ZM195.743 142.16H221.023C220.863 139.76 220.169 137.653 218.943 135.84C217.769 133.973 216.249 132.533 214.383 131.52C212.569 130.453 210.543 129.92 208.303 129.92C206.116 129.92 204.089 130.453 202.223 131.52C200.409 132.533 198.916 133.973 197.743 135.84C196.569 137.653 195.903 139.76 195.743 142.16ZM260.441 131.76C257.027 131.813 253.987 132.587 251.321 134.08C248.707 135.573 246.841 137.68 245.721 140.4V166H236.921V124.16H245.081V133.52C246.521 130.64 248.414 128.347 250.761 126.64C253.107 124.88 255.587 123.92 258.201 123.76C258.734 123.76 259.161 123.76 259.481 123.76C259.854 123.76 260.174 123.787 260.441 123.84V131.76ZM266.842 166V124.16H275.643V166H266.842ZM266.842 117.28V107.6H275.643V117.28H266.842ZM305.018 166.8C301.711 166.8 298.751 166.24 296.138 165.12C293.524 163.947 291.258 162.347 289.338 160.32C287.471 158.293 286.031 156 285.018 153.44C284.004 150.827 283.498 148.053 283.498 145.12C283.498 142.187 284.004 139.413 285.018 136.8C286.031 134.187 287.471 131.893 289.338 129.92C291.258 127.893 293.524 126.32 296.138 125.2C298.804 124.027 301.764 123.44 305.018 123.44C308.271 123.44 311.204 124.027 313.818 125.2C316.484 126.32 318.751 127.893 320.618 129.92C322.538 131.893 324.004 134.187 325.017 136.8C326.031 139.413 326.538 142.187 326.538 145.12C326.538 148.053 326.031 150.827 325.017 153.44C324.004 156 322.538 158.293 320.618 160.32C318.751 162.347 316.484 163.947 313.818 165.12C311.204 166.24 308.271 166.8 305.018 166.8ZM292.538 145.2C292.538 147.867 293.098 150.267 294.218 152.4C295.338 154.533 296.831 156.213 298.698 157.44C300.564 158.667 302.671 159.28 305.018 159.28C307.311 159.28 309.391 158.667 311.258 157.44C313.178 156.16 314.698 154.453 315.818 152.32C316.938 150.133 317.498 147.733 317.498 145.12C317.498 142.453 316.938 140.053 315.818 137.92C314.698 135.787 313.178 134.107 311.258 132.88C309.391 131.6 307.311 130.96 305.018 130.96C302.671 130.96 300.564 131.6 298.698 132.88C296.831 134.16 295.338 135.867 294.218 138C293.098 140.08 292.538 142.48 292.538 145.2ZM307.978 118.16L302.218 116.4L306.778 107.6H315.178L307.978 118.16ZM331.702 145.12C331.702 141.12 332.503 137.493 334.103 134.24C335.756 130.933 337.996 128.32 340.822 126.4C343.649 124.427 346.903 123.44 350.583 123.44C353.783 123.44 356.663 124.267 359.223 125.92C361.836 127.573 363.863 129.627 365.303 132.08V107.6H374.103V156.08C374.103 157.093 374.289 157.813 374.663 158.24C375.036 158.667 375.649 158.907 376.503 158.96V166C374.849 166.267 373.569 166.4 372.663 166.4C371.009 166.4 369.596 165.92 368.423 164.96C367.303 164 366.716 162.853 366.663 161.52L366.583 158.4C364.983 161.067 362.823 163.147 360.103 164.64C357.383 166.08 354.556 166.8 351.623 166.8C348.743 166.8 346.076 166.24 343.623 165.12C341.223 164 339.116 162.427 337.303 160.4C335.543 158.373 334.156 156.053 333.143 153.44C332.183 150.827 331.702 148.053 331.702 145.12ZM365.303 150.96V140C364.716 138.293 363.756 136.773 362.423 135.44C361.143 134.053 359.676 132.96 358.023 132.16C356.423 131.36 354.823 130.96 353.223 130.96C351.356 130.96 349.649 131.36 348.103 132.16C346.609 132.96 345.303 134.027 344.183 135.36C343.116 136.693 342.289 138.213 341.703 139.92C341.116 141.627 340.822 143.413 340.822 145.28C340.822 147.2 341.143 149.013 341.783 150.72C342.423 152.373 343.329 153.867 344.503 155.2C345.729 156.48 347.116 157.493 348.663 158.24C350.263 158.933 351.996 159.28 353.863 159.28C355.036 159.28 356.209 159.067 357.383 158.64C358.609 158.213 359.756 157.627 360.823 156.88C361.943 156.133 362.876 155.253 363.623 154.24C364.423 153.227 364.983 152.133 365.303 150.96ZM385.28 166V124.16H394.08V166H385.28ZM385.28 117.28V107.6H394.08V117.28H385.28ZM423.615 166.8C420.362 166.8 417.402 166.24 414.735 165.12C412.122 163.947 409.855 162.347 407.935 160.32C406.015 158.293 404.522 155.973 403.455 153.36C402.442 150.747 401.935 147.973 401.935 145.04C401.935 141.093 402.815 137.493 404.575 134.24C406.388 130.987 408.895 128.373 412.095 126.4C415.348 124.427 419.188 123.44 423.615 123.44C427.882 123.44 431.588 124.4 434.735 126.32C437.935 128.187 440.282 130.693 441.775 133.84L433.215 136.56C432.255 134.8 430.895 133.44 429.135 132.48C427.428 131.467 425.535 130.96 423.455 130.96C421.108 130.96 418.975 131.573 417.055 132.8C415.188 133.973 413.695 135.627 412.575 137.76C411.508 139.84 410.975 142.267 410.975 145.04C410.975 147.707 411.535 150.133 412.655 152.32C413.775 154.453 415.268 156.16 417.135 157.44C419.055 158.667 421.188 159.28 423.535 159.28C424.975 159.28 426.362 159.04 427.695 158.56C429.082 158.027 430.282 157.333 431.295 156.48C432.308 155.573 433.028 154.587 433.455 153.52L442.095 156.08C441.188 158.16 439.828 160 438.015 161.6C436.255 163.2 434.148 164.48 431.695 165.44C429.295 166.347 426.602 166.8 423.615 166.8ZM446.303 153.76C446.303 151.093 447.049 148.773 448.543 146.8C450.089 144.773 452.196 143.227 454.863 142.16C457.529 141.04 460.623 140.48 464.143 140.48C466.009 140.48 467.903 140.613 469.823 140.88C471.796 141.147 473.529 141.573 475.023 142.16V139.52C475.023 136.587 474.143 134.293 472.383 132.64C470.623 130.987 468.089 130.16 464.783 130.16C462.436 130.16 460.223 130.587 458.143 131.44C456.063 132.24 453.849 133.387 451.503 134.88L448.543 128.96C451.316 127.093 454.089 125.707 456.863 124.8C459.689 123.893 462.649 123.44 465.743 123.44C471.343 123.44 475.743 124.933 478.943 127.92C482.196 130.853 483.823 135.04 483.823 140.48V156.08C483.823 157.093 483.983 157.813 484.303 158.24C484.676 158.667 485.289 158.907 486.143 158.96V166C485.343 166.16 484.623 166.267 483.983 166.32C483.343 166.373 482.809 166.4 482.383 166.4C480.516 166.4 479.103 165.947 478.143 165.04C477.183 164.133 476.623 163.067 476.463 161.84L476.223 159.44C474.409 161.787 472.089 163.6 469.263 164.88C466.436 166.16 463.583 166.8 460.703 166.8C457.929 166.8 455.449 166.24 453.263 165.12C451.076 163.947 449.369 162.373 448.143 160.4C446.916 158.427 446.303 156.213 446.303 153.76ZM472.943 156.32C473.583 155.627 474.089 154.933 474.463 154.24C474.836 153.547 475.023 152.933 475.023 152.4V147.6C473.529 147.013 471.956 146.587 470.303 146.32C468.649 146 467.023 145.84 465.423 145.84C462.223 145.84 459.609 146.48 457.583 147.76C455.609 149.04 454.622 150.8 454.622 153.04C454.622 154.267 454.943 155.44 455.583 156.56C456.276 157.68 457.236 158.587 458.463 159.28C459.743 159.973 461.316 160.32 463.183 160.32C465.103 160.32 466.943 159.947 468.703 159.2C470.463 158.453 471.876 157.493 472.943 156.32Z" fill="white"/>
<path d="M75.3122 18.7835C76.5455 20.3146 77.1744 22.3806 78.4322 26.5127L105.911 116.781C95.7513 111.511 84.7067 105.71 73.0588 103.659L55.1673 43.1987C54.8746 42.2094 53.9659 41.5308 52.9343 41.5308C51.9 41.5308 50.9897 42.213 50.6992 43.2056L33.0244 103.629C21.3224 105.671 10.2274 111.478 0.0241699 116.767L27.6378 26.4918C28.8995 22.3668 29.5305 20.3044 30.7639 18.7761C31.8527 17.4269 33.269 16.379 34.8778 15.7324C36.7 15 38.8568 15 43.1704 15H62.8933C67.2126 15 69.3722 15 71.1962 15.734C72.8062 16.3819 74.2234 17.4319 75.3122 18.7835Z" fill="white"/>
<path d="M78.6005 121.077C74.0706 124.95 65.0289 127.592 54.6142 127.592C41.8314 127.592 31.1175 123.613 28.2745 118.26C27.2581 121.328 27.0302 124.838 27.0302 127.081C27.0302 127.081 26.3605 138.093 34.0194 145.752C34.0194 141.775 37.2434 138.551 41.2202 138.551C48.0367 138.551 48.029 144.498 48.0228 149.322C48.0226 149.467 48.0224 149.611 48.0224 149.753C48.0224 157.076 52.4982 163.354 58.8634 166C57.9127 164.045 57.3794 161.849 57.3794 159.528C57.3794 152.544 61.4798 149.943 66.2454 146.921C70.0371 144.516 74.2501 141.844 77.1535 136.484C78.6684 133.688 79.5286 130.485 79.5286 127.081C79.5286 124.988 79.2034 122.97 78.6005 121.077Z" fill="white"/>
</svg>
